<mxfile host="app.diagrams.net" modified="2024-03-30T19:57:48.415Z" agent="Mozilla/5.0 (Windows NT 10.0; Win64; x64) AppleWebKit/537.36 (KHTML, like Gecko) Chrome/123.0.0.0 Safari/537.36" etag="q2Fot0wjofHeubz3tBgs" version="24.2.1" type="device">
  <diagram name="Page-1" id="QhPI_eycgGOl79e4aV32">
    <mxGraphModel dx="989" dy="489" grid="1" gridSize="10" guides="1" tooltips="1" connect="1" arrows="1" fold="1" page="1" pageScale="1" pageWidth="850" pageHeight="1100" math="0" shadow="0">
      <root>
        <mxCell id="0" />
        <mxCell id="1" parent="0" />
        <mxCell id="vqtvL63MuCQ_m_xJfkid-4" style="edgeStyle=orthogonalEdgeStyle;rounded=0;orthogonalLoop=1;jettySize=auto;html=1;" parent="1" source="vqtvL63MuCQ_m_xJfkid-1" edge="1">
          <mxGeometry relative="1" as="geometry">
            <mxPoint x="425" y="160" as="targetPoint" />
          </mxGeometry>
        </mxCell>
        <mxCell id="vqtvL63MuCQ_m_xJfkid-1" value="OPD&lt;br&gt;Admin Dashboard" style="ellipse;whiteSpace=wrap;html=1;" parent="1" vertex="1">
          <mxGeometry x="308" y="30" width="235" height="100" as="geometry" />
        </mxCell>
        <mxCell id="vqtvL63MuCQ_m_xJfkid-3" value="" style="endArrow=none;html=1;rounded=0;" parent="1" edge="1">
          <mxGeometry width="50" height="50" relative="1" as="geometry">
            <mxPoint x="100" y="170" as="sourcePoint" />
            <mxPoint x="545" y="170" as="targetPoint" />
          </mxGeometry>
        </mxCell>
        <mxCell id="vqtvL63MuCQ_m_xJfkid-5" value="Master" style="text;html=1;align=center;verticalAlign=middle;resizable=0;points=[];autosize=1;strokeColor=none;fillColor=none;" parent="1" vertex="1">
          <mxGeometry x="70" y="207" width="70" height="30" as="geometry" />
        </mxCell>
        <mxCell id="vqtvL63MuCQ_m_xJfkid-6" value="" style="endArrow=classic;html=1;rounded=0;" parent="1" edge="1">
          <mxGeometry width="50" height="50" relative="1" as="geometry">
            <mxPoint x="101" y="170" as="sourcePoint" />
            <mxPoint x="101" y="210" as="targetPoint" />
          </mxGeometry>
        </mxCell>
        <mxCell id="vqtvL63MuCQ_m_xJfkid-8" value="" style="endArrow=none;html=1;rounded=0;" parent="1" edge="1">
          <mxGeometry width="50" height="50" relative="1" as="geometry">
            <mxPoint x="100" y="460" as="sourcePoint" />
            <mxPoint x="100" y="237" as="targetPoint" />
          </mxGeometry>
        </mxCell>
        <mxCell id="vqtvL63MuCQ_m_xJfkid-9" value="Add Depaetment Master" style="text;html=1;align=left;verticalAlign=middle;resizable=0;points=[];autosize=1;strokeColor=none;fillColor=none;fontSize=9;" parent="1" vertex="1">
          <mxGeometry x="130" y="237" width="200" height="30" as="geometry" />
        </mxCell>
        <mxCell id="vqtvL63MuCQ_m_xJfkid-10" value="Department Master" style="text;html=1;align=left;verticalAlign=middle;resizable=0;points=[];autosize=1;strokeColor=none;fillColor=none;fontSize=9;" parent="1" vertex="1">
          <mxGeometry x="130" y="267" width="160" height="30" as="geometry" />
        </mxCell>
        <mxCell id="vqtvL63MuCQ_m_xJfkid-11" value="Add City Master" style="text;html=1;align=left;verticalAlign=middle;resizable=0;points=[];autosize=1;strokeColor=none;fillColor=none;fontSize=9;" parent="1" vertex="1">
          <mxGeometry x="130" y="360" width="140" height="30" as="geometry" />
        </mxCell>
        <mxCell id="vqtvL63MuCQ_m_xJfkid-12" value="Add Doctor Master" style="text;html=1;align=left;verticalAlign=middle;resizable=0;points=[];autosize=1;strokeColor=none;fillColor=none;fontSize=9;" parent="1" vertex="1">
          <mxGeometry x="130" y="297" width="160" height="30" as="geometry" />
        </mxCell>
        <mxCell id="vqtvL63MuCQ_m_xJfkid-13" value="Doctor Master" style="text;html=1;align=left;verticalAlign=middle;resizable=0;points=[];autosize=1;strokeColor=none;fillColor=none;fontSize=9;" parent="1" vertex="1">
          <mxGeometry x="130" y="327" width="120" height="30" as="geometry" />
        </mxCell>
        <mxCell id="vqtvL63MuCQ_m_xJfkid-14" value="City Master" style="text;html=1;align=left;verticalAlign=middle;resizable=0;points=[];autosize=1;strokeColor=none;fillColor=none;fontSize=9;" parent="1" vertex="1">
          <mxGeometry x="130" y="390" width="100" height="30" as="geometry" />
        </mxCell>
        <mxCell id="vqtvL63MuCQ_m_xJfkid-16" value="Patient Category Master" style="text;html=1;align=left;verticalAlign=middle;resizable=0;points=[];autosize=1;strokeColor=none;fillColor=none;fontSize=9;" parent="1" vertex="1">
          <mxGeometry x="130" y="420" width="200" height="30" as="geometry" />
        </mxCell>
      </root>
    </mxGraphModel>
  </diagram>
</mxfile>
